<svg xmlns="http://www.w3.org/2000/svg" width="20" height="20" fill="#FFF" viewBox="0 0 26 26"><path d="M13 0C5.821 0 0 5.821 0 13c0 5.507 3.427 10.212 8.262 12.105-.113-1.028-.216-2.607.046-3.729.236-1.014 1.524-6.462 1.524-6.462s-.389-.779-.389-1.93c0-1.807 1.048-3.157 2.352-3.157 1.11 0 1.645.833 1.645 1.831 0 1.116-.71 2.783-1.077 4.328-.306 1.295.649 2.35 1.925 2.35 2.31 0 4.087-2.436 4.087-5.952 0-3.113-2.236-5.29-5.43-5.29-3.699 0-5.87 2.775-5.87 5.642 0 1.118.43 2.316.968 2.967a.389.389 0 0 1 .09.373c-.099.41-.318 1.293-.361 1.474-.057.239-.189.288-.435.174-1.624-.756-2.639-3.13-2.639-5.037 0-4.1 2.98-7.867 8.59-7.867 4.51 0 8.015 3.213 8.015 7.509 0 4.48-2.826 8.086-6.746 8.086-1.318 0-2.556-.685-2.979-1.493 0 0-.652 2.482-.81 3.09-.294 1.13-1.086 2.545-1.617 3.408 1.217.376 2.509.58 3.849.58 7.179 0 13-5.821 13-13S20.18 0 13 0z"/></svg>